<svg viewBox="0 0 100 180.123" fill="none" stroke-linecap="square" stroke-miterlimit="10" xmlns="http://www.w3.org/2000/svg"><clipPath id="a"><path d="M0 0h100v180.123H0V0z"/></clipPath><g clip-path="url(#a)"><path fill="#fff" d="M0 0h100v180.123H0z" fill-rule="evenodd"/><path fill="#000" d="M39.056 88.244c0-.521.423-.945.945-.945h27.181a.945.945 0 0 1 .945.945v3.78a.945.945 0 0 1-.945.945h-27.18a.945.945 0 0 1-.946-.945z" fill-rule="evenodd"/><path stroke="#000" stroke-linejoin="round" stroke-linecap="butt" d="M39.056 88.244c0-.521.423-.945.945-.945h27.181a.945.945 0 0 1 .945.945v3.78a.945.945 0 0 1-.945.945h-27.18a.945.945 0 0 1-.946-.945z"/><path fill="#fff" d="M11.48 20.187c0-7.092 5.749-12.84 12.84-12.84h51.36a12.84 12.84 0 0 1 12.84 12.84v141.248c0 7.092-5.749 12.84-12.84 12.84H24.32c-7.091 0-12.84-5.748-12.84-12.84z" fill-rule="evenodd"/><path stroke="#000" stroke-width="2" stroke-linejoin="round" stroke-linecap="butt" d="M11.48 20.187c0-7.092 5.749-12.84 12.84-12.84h51.36a12.84 12.84 0 0 1 12.84 12.84v141.248c0 7.092-5.749 12.84-12.84 12.84H24.32c-7.091 0-12.84-5.748-12.84-12.84z"/><path fill="red" d="M25.785 21.8c0-3.767 2.143-6.82 4.787-6.82 1.27 0 2.487.719 3.385 1.998.898 1.278 1.402 3.013 1.402 4.821 0 3.766-2.143 6.82-4.787 6.82s-4.787-3.054-4.787-6.82zM47.009 130.618c0-3.766 2.143-6.82 4.787-6.82 1.27 0 2.487.72 3.385 1.998.898 1.279 1.402 3.013 1.402 4.822 0 3.766-2.143 6.819-4.787 6.819s-4.787-3.053-4.787-6.82zM47.009 45.712c0-3.766 2.143-6.819 4.787-6.819 1.27 0 2.488.719 3.386 1.998.897 1.278 1.402 3.013 1.402 4.821 0 3.766-2.144 6.82-4.788 6.82s-4.787-3.054-4.787-6.82z" fill-rule="evenodd"/><path fill="none" d="M26.09 90.003h52.914"/><path stroke="#000" stroke-width="2" stroke-linejoin="round" stroke-linecap="butt" d="M26.09 90.003h52.914"/><path fill="red" d="M70.084 73.005c0-3.766 2.144-6.82 4.788-6.82 1.27 0 2.487.72 3.385 1.998.898 1.279 1.402 3.013 1.402 4.822 0 3.766-2.143 6.819-4.787 6.819s-4.788-3.053-4.788-6.82zM26.656 106.99c0-3.766 2.143-6.819 4.787-6.819 1.27 0 2.488.719 3.385 1.998.898 1.278 1.403 3.013 1.403 4.821 0 3.766-2.144 6.82-4.788 6.82s-4.787-3.054-4.787-6.82zM70.083 157.868c0-3.766 2.143-6.818 4.787-6.818 1.27 0 2.488.718 3.386 1.997.898 1.279 1.402 3.013 1.402 4.821 0 3.766-2.144 6.82-4.788 6.82s-4.787-3.054-4.787-6.82z" fill-rule="evenodd"/></g></svg>