<svg viewBox="0 0 100 200" fill="none" stroke-linecap="square" stroke-miterlimit="10" xmlns="http://www.w3.org/2000/svg"><clipPath id="a"><path d="M0 0h100v200H0V0z"/></clipPath><g clip-path="url(#a)"><path fill="#fff" d="M0 0h100v200H0z" fill-rule="evenodd"/><path fill="#000" d="M38.65 97.274c0-.577.467-1.045 1.044-1.045H67.4a1.045 1.045 0 0 1 1.044 1.045v4.178c0 .577-.467 1.045-1.044 1.045H39.694a1.045 1.045 0 0 1-1.045-1.045z" fill-rule="evenodd"/><path stroke="#000" stroke-linejoin="round" stroke-linecap="butt" d="M38.65 97.274c0-.577.467-1.045 1.044-1.045H67.4a1.045 1.045 0 0 1 1.044 1.045v4.178c0 .577-.467 1.045-1.044 1.045H39.694a1.045 1.045 0 0 1-1.045-1.045z"/><path fill="#fff" d="M10.397 21.248c0-7.263 5.888-13.15 13.15-13.15h52.598a13.15 13.15 0 0 1 13.15 13.15V178.98c0 7.262-5.888 13.15-13.15 13.15H23.547c-7.262 0-13.15-5.888-13.15-13.15z" fill-rule="evenodd"/><path stroke="#000" stroke-width="2" stroke-linejoin="round" stroke-linecap="butt" d="M10.397 21.248c0-7.263 5.888-13.15 13.15-13.15h52.598a13.15 13.15 0 0 1 13.15 13.15V178.98c0 7.262-5.888 13.15-13.15 13.15H23.547c-7.262 0-13.15-5.888-13.15-13.15z"/><path fill="#f90" d="M70.437 77.787c0-3.365 1.678-6.094 3.748-6.094.994 0 1.948.642 2.65 1.785.703 1.143 1.098 2.693 1.098 4.31 0 3.365-1.678 6.094-3.748 6.094-2.07 0-3.748-2.729-3.748-6.095zM25.052 79.057c0-3.366 1.678-6.095 3.748-6.095.994 0 1.948.643 2.65 1.786.704 1.142 1.098 2.693 1.098 4.309 0 3.366-1.678 6.094-3.748 6.094-2.07 0-3.748-2.728-3.748-6.094zM47.744 77.757c0-3.365 1.678-6.094 3.748-6.094.994 0 1.948.642 2.65 1.785.703 1.143 1.098 2.693 1.098 4.31 0 3.365-1.678 6.094-3.748 6.094-2.07 0-3.748-2.729-3.748-6.095zM25.052 41.424c0-3.366 1.678-6.095 3.748-6.095.994 0 1.947.642 2.65 1.785.703 1.143 1.098 2.694 1.098 4.31 0 3.366-1.678 6.094-3.748 6.094-2.07 0-3.748-2.728-3.748-6.094zM25.052 22.607c0-3.366 1.678-6.094 3.748-6.094.994 0 1.947.642 2.65 1.785.703 1.143 1.098 2.693 1.098 4.31 0 3.365-1.678 6.094-3.748 6.094-2.07 0-3.748-2.729-3.748-6.095zM25.052 60.24c0-3.365 1.678-6.094 3.748-6.094.994 0 1.948.642 2.65 1.785.703 1.143 1.098 2.693 1.098 4.31 0 3.365-1.678 6.094-3.748 6.094-2.07 0-3.748-2.729-3.748-6.095zM47.745 22.607c0-3.366 1.678-6.094 3.748-6.094.994 0 1.947.642 2.65 1.785.703 1.143 1.098 2.693 1.098 4.31 0 3.365-1.678 6.094-3.748 6.094-2.07 0-3.748-2.729-3.748-6.095zM70.437 41.405c0-3.366 1.678-6.095 3.748-6.095.994 0 1.948.642 2.65 1.785.704 1.143 1.098 2.693 1.098 4.31 0 3.365-1.678 6.094-3.748 6.094-2.07 0-3.748-2.729-3.748-6.094zM70.438 22.607c0-3.366 1.678-6.094 3.748-6.094.994 0 1.947.642 2.65 1.785.703 1.143 1.098 2.693 1.098 4.31 0 3.365-1.678 6.094-3.748 6.094-2.07 0-3.748-2.729-3.748-6.095zM70.438 60.202c0-3.366 1.678-6.095 3.748-6.095.994 0 1.947.642 2.65 1.785.703 1.143 1.098 2.694 1.098 4.31 0 3.366-1.678 6.094-3.748 6.094-2.07 0-3.748-2.728-3.748-6.094zM68.578 171.87c0-3.366 1.679-6.094 3.749-6.094.994 0 1.947.642 2.65 1.785.703 1.143 1.098 2.693 1.098 4.31 0 3.365-1.679 6.094-3.748 6.094-2.07 0-3.749-2.729-3.749-6.095zM23.194 173.14c0-3.366 1.678-6.095 3.748-6.095.994 0 1.947.642 2.65 1.785.703 1.143 1.098 2.693 1.098 4.31 0 3.366-1.678 6.094-3.748 6.094-2.07 0-3.748-2.728-3.748-6.094zM45.885 171.84c0-3.366 1.678-6.094 3.748-6.094.994 0 1.948.642 2.65 1.785.704 1.143 1.098 2.693 1.098 4.31 0 3.365-1.678 6.094-3.748 6.094-2.07 0-3.748-2.729-3.748-6.095zM23.193 135.507c0-3.366 1.678-6.095 3.748-6.095.994 0 1.947.642 2.65 1.785.703 1.143 1.098 2.693 1.098 4.31 0 3.366-1.678 6.094-3.748 6.094-2.07 0-3.748-2.728-3.748-6.094zM23.193 116.69c0-3.366 1.678-6.094 3.748-6.094.994 0 1.948.642 2.65 1.785.703 1.143 1.098 2.693 1.098 4.31 0 3.365-1.678 6.094-3.748 6.094-2.07 0-3.748-2.729-3.748-6.095zM23.193 154.323c0-3.366 1.678-6.094 3.748-6.094.994 0 1.948.642 2.65 1.785.704 1.143 1.098 2.693 1.098 4.31 0 3.365-1.678 6.094-3.748 6.094-2.07 0-3.748-2.729-3.748-6.095zM45.886 116.69c0-3.366 1.678-6.094 3.748-6.094.994 0 1.947.642 2.65 1.785.703 1.143 1.098 2.693 1.098 4.31 0 3.365-1.678 6.094-3.748 6.094-2.07 0-3.748-2.729-3.748-6.095zM68.579 135.487c0-3.366 1.678-6.094 3.748-6.094.994 0 1.947.642 2.65 1.785.703 1.143 1.098 2.693 1.098 4.31 0 3.365-1.678 6.094-3.748 6.094-2.07 0-3.748-2.729-3.748-6.095zM68.579 116.69c0-3.366 1.678-6.094 3.748-6.094.994 0 1.947.642 2.65 1.785.703 1.143 1.098 2.693 1.098 4.31 0 3.365-1.678 6.094-3.748 6.094-2.07 0-3.748-2.729-3.748-6.095zM68.58 154.285c0-3.366 1.677-6.095 3.747-6.095.994 0 1.947.642 2.65 1.785.703 1.143 1.098 2.693 1.098 4.31 0 3.366-1.678 6.094-3.748 6.094-2.07 0-3.748-2.728-3.748-6.094z" fill-rule="evenodd"/><path fill="none" d="M25.366 99.209H79.57"/><path stroke="#000" stroke-width="2" stroke-linejoin="round" stroke-linecap="butt" d="M25.366 99.209H79.57"/></g></svg>