<svg viewBox="0 0 100 178.459" fill="none" stroke-linecap="square" stroke-miterlimit="10" xmlns="http://www.w3.org/2000/svg"><clipPath id="a"><path d="M0 0h100v178.46H0V0z"/></clipPath><g clip-path="url(#a)"><path fill="#fff" d="M0 0h100v178.46H0z" fill-rule="evenodd"/><path fill="#000" d="M38.805 88.244c0-.521.423-.945.945-.945h27.874a.945.945 0 0 1 .945.945v3.78a.945.945 0 0 1-.945.945H39.75a.945.945 0 0 1-.945-.945z" fill-rule="evenodd"/><path stroke="#000" stroke-linejoin="round" stroke-linecap="butt" d="M38.805 88.244c0-.521.423-.945.945-.945h27.874a.945.945 0 0 1 .945.945v3.78a.945.945 0 0 1-.945.945H39.75a.945.945 0 0 1-.945-.945z"/><path fill="#fff" d="M10.567 20.491c0-7.26 5.885-13.145 13.145-13.145h52.576a13.145 13.145 0 0 1 13.145 13.145v140.64c0 7.26-5.885 13.145-13.145 13.145H23.712c-7.26 0-13.145-5.885-13.145-13.145z" fill-rule="evenodd"/><path stroke="#000" stroke-width="2" stroke-linejoin="round" stroke-linecap="butt" d="M10.567 20.491c0-7.26 5.885-13.145 13.145-13.145h52.576a13.145 13.145 0 0 1 13.145 13.145v140.64c0 7.26-5.885 13.145-13.145 13.145H23.712c-7.26 0-13.145-5.885-13.145-13.145z"/><path fill="#7f6000" d="M25.215 21.8c0-3.767 2.2-6.82 4.913-6.82 1.303 0 2.553.719 3.474 1.998.922 1.278 1.44 3.013 1.44 4.821 0 3.766-2.2 6.82-4.914 6.82-2.713 0-4.913-3.054-4.913-6.82zM25.215 73.01c0-3.767 2.2-6.82 4.913-6.82 1.303 0 2.553.719 3.475 1.998.921 1.278 1.439 3.013 1.439 4.821 0 3.766-2.2 6.82-4.914 6.82-2.713 0-4.913-3.054-4.913-6.82zM70.579 21.8c0-3.767 2.2-6.82 4.913-6.82 1.303 0 2.553.719 3.475 1.998.921 1.278 1.439 3.013 1.439 4.821 0 3.766-2.2 6.82-4.914 6.82-2.713 0-4.913-3.054-4.913-6.82z" fill-rule="evenodd"/><path fill="none" d="M25.528 90.003h54.205"/><path stroke="#000" stroke-width="2" stroke-linejoin="round" stroke-linecap="butt" d="M25.528 90.003h54.205"/><path fill="#7f6000" d="M70.579 73.005c0-3.766 2.2-6.82 4.913-6.82 1.303 0 2.553.72 3.474 1.998.922 1.279 1.44 3.013 1.44 4.822 0 3.766-2.2 6.819-4.914 6.819-2.714 0-4.913-3.053-4.913-6.82zM26.107 106.99c0-3.766 2.2-6.819 4.913-6.819 1.303 0 2.553.719 3.475 1.998.921 1.278 1.439 3.013 1.439 4.821 0 3.766-2.2 6.82-4.914 6.82-2.713 0-4.913-3.054-4.913-6.82zM26.107 158.2c0-3.766 2.2-6.819 4.913-6.819 1.304 0 2.553.719 3.475 1.998.921 1.278 1.439 3.013 1.439 4.821 0 3.766-2.2 6.82-4.914 6.82-2.713 0-4.913-3.054-4.913-6.82zM70.578 107.887c0-3.766 2.2-6.819 4.913-6.819 1.303 0 2.553.719 3.474 1.998.922 1.278 1.44 3.013 1.44 4.821 0 3.766-2.2 6.82-4.914 6.82-2.713 0-4.913-3.054-4.913-6.82zM70.577 157.868c0-3.766 2.2-6.818 4.914-6.818 1.303 0 2.553.718 3.474 1.997.922 1.279 1.44 3.013 1.44 4.821 0 3.766-2.2 6.82-4.914 6.82-2.714 0-4.914-3.054-4.914-6.82z" fill-rule="evenodd"/></g></svg>