<svg viewBox="0 0 100 200" fill="none" stroke-linecap="square" stroke-miterlimit="10" xmlns="http://www.w3.org/2000/svg"><clipPath id="a"><path d="M0 0h100v200H0V0z"/></clipPath><g clip-path="url(#a)"><path fill="#fff" d="M0 0h100v200H0z" fill-rule="evenodd"/><path fill="#000" d="M37.32 97.034c0-.6.486-1.087 1.086-1.087h31.56a1.087 1.087 0 0 1 1.086 1.087v4.346c0 .6-.487 1.087-1.087 1.087H38.406c-.6 0-1.086-.486-1.086-1.087z" fill-rule="evenodd"/><path stroke="#000" stroke-linejoin="round" stroke-linecap="butt" d="M37.32 97.034c0-.6.486-1.087 1.086-1.087h31.56a1.087 1.087 0 0 1 1.086 1.087v4.346c0 .6-.487 1.087-1.087 1.087H38.406c-.6 0-1.086-.486-1.086-1.087z"/><path fill="#fff" d="M5.322 18.1c0-8.224 6.668-14.892 14.893-14.892h59.569a14.893 14.893 0 0 1 14.892 14.893v162.214c0 8.225-6.667 14.893-14.892 14.893h-59.57c-8.224 0-14.892-6.668-14.892-14.893z" fill-rule="evenodd"/><path stroke="#000" stroke-width="2" stroke-linejoin="round" stroke-linecap="butt" d="M5.322 18.1c0-8.224 6.668-14.892 14.893-14.892h59.569a14.893 14.893 0 0 1 14.892 14.893v162.214c0 8.225-6.667 14.893-14.892 14.893h-59.57c-8.224 0-14.892-6.668-14.892-14.893z"/><path fill="none" d="m22.277 99.056 58.141.945"/><path stroke="#000" stroke-width="2" stroke-linejoin="round" stroke-linecap="butt" d="m22.277 99.056 58.141.945"/><path fill="#3d85c6" d="M46.665 19.129c0-3.506 1.904-6.347 4.252-6.347 1.128 0 2.21.669 3.007 1.859.797 1.19 1.245 2.804 1.245 4.488 0 3.505-1.904 6.346-4.252 6.346s-4.252-2.841-4.252-6.346zM46.664 39.812c0-3.505 1.904-6.346 4.252-6.346 1.128 0 2.21.668 3.006 1.859.798 1.19 1.246 2.804 1.246 4.487 0 3.505-1.904 6.347-4.252 6.347s-4.252-2.842-4.252-6.347zM46.664 61.545c0-3.506 1.904-6.347 4.252-6.347 1.128 0 2.21.669 3.006 1.859.798 1.19 1.246 2.804 1.246 4.488 0 3.505-1.904 6.346-4.252 6.346s-4.252-2.841-4.252-6.346zM46.664 81.61c0-3.505 1.904-6.346 4.252-6.346 1.128 0 2.21.668 3.006 1.859.798 1.19 1.246 2.804 1.246 4.487 0 3.505-1.904 6.347-4.252 6.347s-4.252-2.842-4.252-6.347zM22.277 19.129c0-3.506 1.903-6.347 4.252-6.347 1.127 0 2.209.669 3.006 1.859.798 1.19 1.246 2.804 1.246 4.488 0 3.505-1.904 6.346-4.252 6.346-2.349 0-4.252-2.841-4.252-6.346zM22.275 39.812c0-3.505 1.904-6.346 4.252-6.346 1.128 0 2.21.668 3.007 1.859.797 1.19 1.245 2.804 1.245 4.487 0 3.505-1.903 6.347-4.252 6.347-2.348 0-4.252-2.842-4.252-6.347zM22.275 61.545c0-3.506 1.904-6.347 4.252-6.347 1.128 0 2.21.669 3.007 1.859.797 1.19 1.245 2.804 1.245 4.488 0 3.505-1.903 6.346-4.252 6.346-2.348 0-4.252-2.841-4.252-6.346zM22.275 81.61c0-3.505 1.904-6.346 4.252-6.346 1.128 0 2.21.668 3.007 1.859.797 1.19 1.245 2.804 1.245 4.487 0 3.505-1.903 6.347-4.252 6.347-2.348 0-4.252-2.842-4.252-6.347zM71.054 19.129c0-3.506 1.903-6.347 4.252-6.347 1.127 0 2.209.669 3.006 1.859.798 1.19 1.246 2.804 1.246 4.488 0 3.505-1.904 6.346-4.252 6.346-2.349 0-4.252-2.841-4.252-6.346zM71.052 39.812c0-3.505 1.904-6.346 4.252-6.346 1.128 0 2.21.668 3.007 1.859.797 1.19 1.245 2.804 1.245 4.487 0 3.505-1.903 6.347-4.252 6.347-2.348 0-4.252-2.842-4.252-6.347zM71.052 61.545c0-3.506 1.904-6.347 4.252-6.347 1.128 0 2.21.669 3.007 1.859.797 1.19 1.245 2.804 1.245 4.488 0 3.505-1.903 6.346-4.252 6.346-2.348 0-4.252-2.841-4.252-6.346zM71.052 81.61c0-3.505 1.904-6.346 4.252-6.346 1.128 0 2.21.668 3.007 1.859.797 1.19 1.245 2.804 1.245 4.487 0 3.505-1.903 6.347-4.252 6.347-2.348 0-4.252-2.842-4.252-6.347zM47.096 116.806c0-3.505 1.903-6.347 4.252-6.347 1.127 0 2.209.669 3.006 1.86.798 1.19 1.246 2.804 1.246 4.487 0 3.505-1.904 6.346-4.252 6.346-2.349 0-4.252-2.841-4.252-6.346zM47.094 137.49c0-3.506 1.904-6.347 4.252-6.347 1.128 0 2.21.669 3.007 1.859.797 1.19 1.245 2.804 1.245 4.487 0 3.505-1.903 6.347-4.252 6.347-2.348 0-4.252-2.842-4.252-6.347zM47.094 159.222c0-3.505 1.904-6.347 4.252-6.347 1.128 0 2.21.669 3.007 1.86.797 1.19 1.245 2.804 1.245 4.487 0 3.505-1.903 6.346-4.252 6.346-2.348 0-4.252-2.841-4.252-6.346zM47.094 179.287c0-3.505 1.904-6.346 4.252-6.346 1.128 0 2.21.669 3.007 1.859.797 1.19 1.245 2.804 1.245 4.487 0 3.505-1.903 6.347-4.252 6.347-2.348 0-4.252-2.842-4.252-6.347zM22.707 116.806c0-3.505 1.904-6.347 4.252-6.347 1.128 0 2.21.669 3.007 1.86.797 1.19 1.245 2.804 1.245 4.487 0 3.505-1.904 6.346-4.252 6.346s-4.252-2.841-4.252-6.346zM22.706 137.49c0-3.506 1.904-6.347 4.252-6.347 1.128 0 2.21.669 3.006 1.859.798 1.19 1.246 2.804 1.246 4.487 0 3.505-1.904 6.347-4.252 6.347s-4.252-2.842-4.252-6.347zM22.706 159.222c0-3.505 1.904-6.347 4.252-6.347 1.128 0 2.21.669 3.006 1.86.798 1.19 1.246 2.804 1.246 4.487 0 3.505-1.904 6.346-4.252 6.346s-4.252-2.841-4.252-6.346zM22.706 179.287c0-3.505 1.904-6.346 4.252-6.346 1.128 0 2.21.669 3.006 1.859.798 1.19 1.246 2.804 1.246 4.487 0 3.505-1.904 6.347-4.252 6.347s-4.252-2.842-4.252-6.347zM71.484 116.806c0-3.505 1.904-6.347 4.252-6.347 1.128 0 2.21.669 3.007 1.86.797 1.19 1.245 2.804 1.245 4.487 0 3.505-1.904 6.346-4.252 6.346s-4.252-2.841-4.252-6.346zM71.483 137.49c0-3.506 1.903-6.347 4.252-6.347 1.127 0 2.209.669 3.006 1.859.798 1.19 1.246 2.804 1.246 4.487 0 3.505-1.904 6.347-4.252 6.347-2.349 0-4.252-2.842-4.252-6.347zM71.483 159.222c0-3.505 1.903-6.347 4.252-6.347 1.127 0 2.209.669 3.006 1.86.798 1.19 1.246 2.804 1.246 4.487 0 3.505-1.904 6.346-4.252 6.346-2.349 0-4.252-2.841-4.252-6.346zM71.483 179.287c0-3.505 1.903-6.346 4.252-6.346 1.127 0 2.209.669 3.006 1.859.798 1.19 1.246 2.804 1.246 4.487 0 3.505-1.904 6.347-4.252 6.347-2.349 0-4.252-2.842-4.252-6.347z" fill-rule="evenodd"/></g></svg>