<svg viewBox="0 0 100 200" fill="none" stroke-linecap="square" stroke-miterlimit="10" xmlns="http://www.w3.org/2000/svg"><clipPath id="a"><path d="M0 0h100v200H0V0z"/></clipPath><g clip-path="url(#a)"><path fill="#fff" d="M0 0h100v200H0z" fill-rule="evenodd"/><path fill="#000" d="M39.133 96.38c0-.572.463-1.035 1.034-1.035H66.98a1.034 1.034 0 0 1 1.034 1.034v4.137c0 .57-.463 1.034-1.034 1.034H40.167a1.034 1.034 0 0 1-1.034-1.034z" fill-rule="evenodd"/><path stroke="#000" stroke-linejoin="round" stroke-linecap="butt" d="M39.133 96.38c0-.572.463-1.035 1.034-1.035H66.98a1.034 1.034 0 0 1 1.034 1.034v4.137c0 .57-.463 1.034-1.034 1.034H40.167a1.034 1.034 0 0 1-1.034-1.034z"/><path fill="#fff" d="M11.732 20.78c0-7.045 5.711-12.756 12.756-12.756h51.024A12.756 12.756 0 0 1 88.268 20.78v156.787c0 7.045-5.711 12.756-12.756 12.756H24.488c-7.045 0-12.756-5.711-12.756-12.756z" fill-rule="evenodd"/><path stroke="#000" stroke-width="2" stroke-linejoin="round" stroke-linecap="butt" d="M11.732 20.78c0-7.045 5.711-12.756 12.756-12.756h51.024A12.756 12.756 0 0 1 88.268 20.78v156.787c0 7.045-5.711 12.756-12.756 12.756H24.488c-7.045 0-12.756-5.711-12.756-12.756z"/><path fill="#000" d="M47.034 142.657c0-4.114 2.13-7.449 4.756-7.449 1.261 0 2.471.785 3.363 2.182.892 1.397 1.393 3.291 1.393 5.267 0 4.114-2.13 7.449-4.756 7.449-2.627 0-4.756-3.335-4.756-7.449zM47.035 49.927c0-4.114 2.129-7.449 4.755-7.449 1.262 0 2.472.785 3.363 2.182.892 1.397 1.393 3.291 1.393 5.267 0 4.114-2.129 7.449-4.756 7.449-2.626 0-4.755-3.335-4.755-7.45z" fill-rule="evenodd"/><path fill="none" d="M26.25 98.297h52.598"/><path stroke="#000" stroke-width="2" stroke-linejoin="round" stroke-linecap="butt" d="M26.25 98.297h52.598"/></g></svg>