<svg viewBox="0 0 100.441 180.638" fill="none" stroke-linecap="square" stroke-miterlimit="10" xmlns="http://www.w3.org/2000/svg"><clipPath id="a"><path d="M0 0h100.441v180.638H0V0z"/></clipPath><g clip-path="url(#a)"><path fill="#fff" d="M0 0h100.441v180.638H0z" fill-rule="evenodd"/><path fill="#000" d="M38.909 88.244c0-.521.423-.945.945-.945h28.188a.945.945 0 0 1 .945.945v3.78a.945.945 0 0 1-.945.945H39.854a.945.945 0 0 1-.945-.945z" fill-rule="evenodd"/><path stroke="#000" stroke-linejoin="round" stroke-linecap="butt" d="M38.909 88.244c0-.521.423-.945.945-.945h28.188a.945.945 0 0 1 .945.945v3.78a.945.945 0 0 1-.945.945H39.854a.945.945 0 0 1-.945-.945z"/><path fill="#fff" d="M10.378 20.628c0-7.335 5.946-13.282 13.281-13.282h53.123a13.281 13.281 0 0 1 13.281 13.282v140.366c0 7.335-5.946 13.282-13.281 13.282H23.659c-7.335 0-13.281-5.947-13.281-13.282z" fill-rule="evenodd"/><path stroke="#000" stroke-width="2" stroke-linejoin="round" stroke-linecap="butt" d="M10.378 20.628c0-7.335 5.946-13.282 13.281-13.282h53.123a13.281 13.281 0 0 1 13.281 13.282v140.366c0 7.335-5.946 13.282-13.281 13.282H23.659c-7.335 0-13.281-5.947-13.281-13.282z"/><path fill="#e69138" d="M25.177 21.8c0-3.767 2.221-6.82 4.961-6.82 1.316 0 2.577.719 3.508 1.998.93 1.278 1.453 3.013 1.453 4.821 0 3.766-2.221 6.82-4.961 6.82s-4.96-3.054-4.96-6.82zM25.177 73.01c0-3.767 2.221-6.82 4.961-6.82 1.316 0 2.577.719 3.508 1.998.93 1.278 1.453 3.013 1.453 4.821 0 3.766-2.221 6.82-4.96 6.82-2.74 0-4.962-3.054-4.962-6.82zM71.01 21.8c0-3.767 2.222-6.82 4.962-6.82 1.315 0 2.577.719 3.507 1.998.93 1.278 1.453 3.013 1.453 4.821 0 3.766-2.22 6.82-4.96 6.82-2.74 0-4.961-3.054-4.961-6.82z" fill-rule="evenodd"/><path fill="none" d="M25.494 90.003h54.772"/><path stroke="#000" stroke-width="2" stroke-linejoin="round" stroke-linecap="butt" d="M25.494 90.003h54.772"/><path fill="#e69138" d="M71.01 73.005c0-3.766 2.222-6.82 4.961-6.82 1.316 0 2.578.72 3.508 1.998.93 1.279 1.453 3.013 1.453 4.822 0 3.766-2.221 6.819-4.96 6.819-2.74 0-4.961-3.053-4.961-6.82zM26.079 106.99c0-3.766 2.22-6.819 4.96-6.819 1.316 0 2.578.719 3.508 1.998.93 1.278 1.453 3.013 1.453 4.821 0 3.766-2.22 6.82-4.96 6.82-2.74 0-4.961-3.054-4.961-6.82zM26.079 158.2c0-3.766 2.22-6.819 4.96-6.819 1.316 0 2.578.719 3.508 1.998.93 1.278 1.453 3.013 1.453 4.821 0 3.766-2.22 6.82-4.96 6.82-2.74 0-4.961-3.054-4.961-6.82zM71.01 107.887c0-3.766 2.22-6.819 4.96-6.819 1.316 0 2.578.719 3.508 1.998.93 1.278 1.453 3.013 1.453 4.821 0 3.766-2.22 6.82-4.96 6.82-2.74 0-4.961-3.054-4.961-6.82zM71.01 157.868c0-3.766 2.22-6.818 4.96-6.818 1.316 0 2.578.718 3.508 1.997.93 1.279 1.453 3.013 1.453 4.821 0 3.766-2.221 6.82-4.96 6.82-2.74 0-4.962-3.054-4.962-6.82zM25.177 47.404c0-3.766 2.221-6.819 4.96-6.819 1.316 0 2.578.719 3.508 1.997.93 1.28 1.453 3.014 1.453 4.822 0 3.766-2.22 6.819-4.96 6.819-2.74 0-4.96-3.053-4.96-6.819zM71.01 132.879c0-3.766 2.221-6.819 4.96-6.819 1.316 0 2.578.718 3.508 1.997.93 1.279 1.453 3.013 1.453 4.822 0 3.766-2.22 6.819-4.96 6.819-2.74 0-4.96-3.053-4.96-6.82zM71.01 47.403c0-3.766 2.221-6.819 4.96-6.819 1.316 0 2.578.718 3.508 1.997.93 1.279 1.453 3.013 1.453 4.822 0 3.766-2.22 6.819-4.96 6.819-2.74 0-4.96-3.053-4.96-6.82zM26.08 132.596c0-3.765 2.22-6.818 4.96-6.818 1.316 0 2.578.718 3.508 1.997.93 1.279 1.453 3.013 1.453 4.821 0 3.766-2.221 6.82-4.96 6.82-2.74 0-4.961-3.054-4.961-6.82z" fill-rule="evenodd"/></g></svg>