<svg viewBox="0 0 100.441 181.52" fill="none" stroke-linecap="square" stroke-miterlimit="10" xmlns="http://www.w3.org/2000/svg"><clipPath id="a"><path d="M0 0h100.441v181.52H0V0z"/></clipPath><g clip-path="url(#a)"><path fill="#fff" d="M0 0h100.441v181.52H0z" fill-rule="evenodd"/><path fill="#000" d="M39.238 88.244c0-.521.423-.945.945-.945H66.89a.945.945 0 0 1 .945.945v3.78a.945.945 0 0 1-.945.945H40.183a.945.945 0 0 1-.945-.945z" fill-rule="evenodd"/><path stroke="#000" stroke-linejoin="round" stroke-linecap="butt" d="M39.238 88.244c0-.521.423-.945.945-.945H66.89a.945.945 0 0 1 .945.945v3.78a.945.945 0 0 1-.945.945H40.183a.945.945 0 0 1-.945-.945z"/><path fill="#fff" d="M12.126 19.971c0-6.972 5.652-12.625 12.625-12.625h50.498a12.625 12.625 0 0 1 12.625 12.625v141.68c0 6.972-5.652 12.625-12.625 12.625H24.751c-6.973 0-12.625-5.653-12.625-12.625z" fill-rule="evenodd"/><path stroke="#000" stroke-width="2" stroke-linejoin="round" stroke-linecap="butt" d="M12.126 19.971c0-6.972 5.652-12.625 12.625-12.625h50.498a12.625 12.625 0 0 1 12.625 12.625v141.68c0 6.972-5.652 12.625-12.625 12.625H24.751c-6.973 0-12.625-5.653-12.625-12.625z"/><path fill="#0ff" d="M26.19 47.404c0-3.766 2.107-6.819 4.708-6.819 1.249 0 2.446.719 3.33 1.998.882 1.278 1.378 3.013 1.378 4.821 0 3.766-2.108 6.82-4.708 6.82s-4.709-3.054-4.709-6.82zM26.19 21.8c0-3.767 2.108-6.82 4.708-6.82 1.249 0 2.447.719 3.33 1.998.883 1.278 1.379 3.013 1.379 4.821 0 3.766-2.108 6.82-4.709 6.82-2.6 0-4.709-3.054-4.709-6.82zM26.19 73.01c0-3.767 2.108-6.82 4.708-6.82 1.249 0 2.447.719 3.33 1.998.883 1.278 1.379 3.013 1.379 4.821 0 3.766-2.108 6.82-4.709 6.82-2.6 0-4.708-3.054-4.708-6.82zM49.22 21.8c0-3.767 2.108-6.82 4.709-6.82 1.249 0 2.446.719 3.33 1.998.883 1.278 1.379 3.013 1.379 4.821 0 3.766-2.108 6.82-4.709 6.82-2.6 0-4.709-3.054-4.709-6.82zM69.743 47.767c0-3.766 2.109-6.82 4.71-6.82 1.248 0 2.446.72 3.329 1.998.883 1.279 1.379 3.013 1.379 4.822 0 3.766-2.108 6.819-4.709 6.819-2.6 0-4.709-3.053-4.709-6.82zM69.744 21.8c0-3.767 2.108-6.82 4.708-6.82 1.25 0 2.447.719 3.33 1.998.883 1.278 1.379 3.013 1.379 4.821 0 3.766-2.108 6.82-4.709 6.82-2.6 0-4.708-3.054-4.708-6.82z" fill-rule="evenodd"/><path fill="none" d="M26.49 90.003h52.032"/><path stroke="#000" stroke-width="2" stroke-linejoin="round" stroke-linecap="butt" d="M26.49 90.003h52.032"/><path fill="#0ff" d="M49.16 73c0-3.766 2.108-6.819 4.708-6.819 1.25 0 2.447.719 3.33 1.998.883 1.278 1.38 3.013 1.38 4.821 0 3.766-2.11 6.82-4.71 6.82S49.16 76.765 49.16 73zM69.743 73.005c0-3.766 2.109-6.82 4.71-6.82 1.248 0 2.446.72 3.329 1.998.883 1.279 1.379 3.013 1.379 4.822 0 3.766-2.108 6.819-4.709 6.819-2.6 0-4.709-3.053-4.709-6.82zM27.046 132.595c0-3.766 2.108-6.819 4.708-6.819 1.25 0 2.447.719 3.33 1.998.883 1.278 1.379 3.013 1.379 4.821 0 3.766-2.108 6.82-4.709 6.82-2.6 0-4.708-3.054-4.708-6.82zM27.046 106.99c0-3.766 2.108-6.819 4.709-6.819 1.248 0 2.446.719 3.33 1.998.882 1.278 1.378 3.013 1.378 4.821 0 3.766-2.108 6.82-4.708 6.82s-4.709-3.054-4.709-6.82zM27.046 158.2c0-3.766 2.108-6.819 4.709-6.819 1.249 0 2.446.719 3.33 1.998.882 1.278 1.378 3.013 1.378 4.821 0 3.766-2.108 6.82-4.708 6.82s-4.709-3.054-4.709-6.82zM50.077 106.99c0-3.766 2.108-6.819 4.709-6.819 1.248 0 2.446.719 3.33 1.998.882 1.278 1.378 3.013 1.378 4.821 0 3.766-2.108 6.82-4.708 6.82s-4.71-3.054-4.71-6.82zM70.6 132.958c0-3.766 2.108-6.82 4.709-6.82 1.248 0 2.446.72 3.33 1.998.882 1.279 1.378 3.013 1.378 4.822 0 3.766-2.108 6.819-4.708 6.819s-4.709-3.053-4.709-6.82zM70.6 106.99c0-3.766 2.108-6.819 4.709-6.819 1.249 0 2.446.719 3.33 1.998.882 1.278 1.379 3.013 1.379 4.821 0 3.766-2.109 6.82-4.71 6.82-2.6 0-4.708-3.054-4.708-6.82zM50.016 158.191c0-3.766 2.108-6.818 4.709-6.818 1.249 0 2.446.718 3.33 1.997.883 1.279 1.379 3.013 1.379 4.821 0 3.766-2.108 6.82-4.709 6.82-2.6 0-4.709-3.054-4.709-6.82zM70.6 158.196c0-3.766 2.108-6.819 4.709-6.819 1.248 0 2.446.718 3.33 1.997.882 1.279 1.378 3.013 1.378 4.822 0 3.766-2.108 6.819-4.708 6.819s-4.709-3.053-4.709-6.82z" fill-rule="evenodd"/></g></svg>