<svg viewBox="0 0 100 200" fill="none" stroke-linecap="square" stroke-miterlimit="10" xmlns="http://www.w3.org/2000/svg"><clipPath id="a"><path d="M0 0h100v200H0V0z"/></clipPath><g clip-path="url(#a)"><path fill="#fff" d="M0 0h100v200H0z" fill-rule="evenodd"/><path fill="#000" d="M38.99 98.103c0-.58.47-1.05 1.05-1.05h27.19a1.05 1.05 0 0 1 1.05 1.05v4.2c0 .58-.47 1.05-1.05 1.05H40.04c-.58 0-1.05-.47-1.05-1.05z" fill-rule="evenodd"/><path stroke="#000" stroke-linejoin="round" stroke-linecap="butt" d="M38.99 98.103c0-.58.47-1.05 1.05-1.05h27.19a1.05 1.05 0 0 1 1.05 1.05v4.2c0 .58-.47 1.05-1.05 1.05H40.04c-.58 0-1.05-.47-1.05-1.05z"/><path fill="#fff" d="M11.218 21.097c0-7.14 5.79-12.93 12.93-12.93h51.716a12.93 12.93 0 0 1 12.93 12.93v159.747c0 7.141-5.79 12.93-12.93 12.93H24.148c-7.14 0-12.93-5.789-12.93-12.93z" fill-rule="evenodd"/><path stroke="#000" stroke-width="2" stroke-linejoin="round" stroke-linecap="butt" d="M11.218 21.097c0-7.14 5.79-12.93 12.93-12.93h51.716a12.93 12.93 0 0 1 12.93 12.93v159.747c0 7.141-5.79 12.93-12.93 12.93H24.148c-7.14 0-12.93-5.789-12.93-12.93z"/><path fill="#00f" d="M25.624 24.245c0-4.192 2.157-7.59 4.819-7.59 1.278 0 2.503.799 3.407 2.222.904 1.424 1.412 3.355 1.412 5.368 0 4.192-2.158 7.59-4.82 7.59-2.66 0-4.818-3.398-4.818-7.59zM25.624 81.176c0-4.192 2.157-7.59 4.819-7.59 1.278 0 2.504.8 3.407 2.223.904 1.423 1.412 3.354 1.412 5.367 0 4.192-2.158 7.59-4.82 7.59-2.66 0-4.818-3.398-4.818-7.59zM70.237 24.245c0-4.192 2.157-7.59 4.819-7.59 1.278 0 2.504.799 3.407 2.222.904 1.424 1.412 3.355 1.412 5.368 0 4.192-2.158 7.59-4.82 7.59-2.66 0-4.818-3.398-4.818-7.59z" fill-rule="evenodd"/><path fill="none" d="M25.932 100.058h53.292"/><path stroke="#000" stroke-width="2" stroke-linejoin="round" stroke-linecap="butt" d="M25.932 100.058h53.292"/><path fill="#00f" d="M70.237 81.171c0-4.192 2.157-7.59 4.819-7.59 1.278 0 2.503.8 3.407 2.223.904 1.423 1.412 3.354 1.412 5.367 0 4.192-2.158 7.59-4.82 7.59-2.66 0-4.818-3.398-4.818-7.59zM26.501 118.954c0-4.192 2.158-7.59 4.82-7.59 1.277 0 2.503.799 3.407 2.222.903 1.424 1.411 3.355 1.411 5.368 0 4.192-2.157 7.59-4.819 7.59-2.661 0-4.819-3.398-4.819-7.59zM26.501 175.885c0-4.192 2.158-7.59 4.82-7.59 1.277 0 2.503.8 3.407 2.223.903 1.423 1.411 3.354 1.411 5.367 0 4.192-2.157 7.59-4.819 7.59-2.661 0-4.819-3.398-4.819-7.59zM70.236 119.95c0-4.191 2.157-7.59 4.819-7.59 1.278 0 2.504.8 3.407 2.224.904 1.423 1.412 3.354 1.412 5.367 0 4.192-2.158 7.59-4.82 7.59-2.66 0-4.818-3.398-4.818-7.59zM70.236 175.516c0-4.192 2.157-7.59 4.819-7.59 1.278 0 2.503.8 3.407 2.223.904 1.423 1.411 3.354 1.411 5.367 0 4.192-2.157 7.59-4.818 7.59-2.662 0-4.82-3.398-4.82-7.59zM46.998 52.696c0-4.192 2.157-7.59 4.818-7.59 1.279 0 2.504.8 3.408 2.223.904 1.424 1.411 3.354 1.411 5.367 0 4.193-2.157 7.591-4.819 7.591-2.66 0-4.818-3.398-4.818-7.59zM46.998 147.735c0-4.193 2.157-7.59 4.818-7.59 1.279 0 2.504.799 3.408 2.222.904 1.424 1.411 3.354 1.411 5.368 0 4.192-2.157 7.59-4.819 7.59-2.66 0-4.818-3.398-4.818-7.59z" fill-rule="evenodd"/></g></svg>