<svg viewBox="0 0 100 200" fill="none" stroke-linecap="square" stroke-miterlimit="10" xmlns="http://www.w3.org/2000/svg"><clipPath id="a"><path d="M0 0h100v200H0V0z"/></clipPath><g clip-path="url(#a)"><path fill="#fff" d="M0 0h100v200H0z" fill-rule="evenodd"/><path fill="#900" d="M38.946 96.452c0-.58.47-1.05 1.05-1.05h27.853a1.05 1.05 0 0 1 1.05 1.05v4.2c0 .58-.47 1.05-1.05 1.05H39.996c-.58 0-1.05-.47-1.05-1.05z" fill-rule="evenodd"/><path stroke="#000" stroke-linejoin="round" stroke-linecap="butt" d="M38.946 96.452c0-.58.47-1.05 1.05-1.05h27.853a1.05 1.05 0 0 1 1.05 1.05v4.2c0 .58-.47 1.05-1.05 1.05H39.996c-.58 0-1.05-.47-1.05-1.05z"/><path fill="#fff" d="M10.315 19.034c0-7.306 5.923-13.228 13.229-13.228h52.912a13.229 13.229 0 0 1 13.229 13.228v159.023c0 7.306-5.923 13.23-13.229 13.23H23.544c-7.306 0-13.229-5.924-13.229-13.23z" fill-rule="evenodd"/><path stroke="#000" stroke-width="2" stroke-linejoin="round" stroke-linecap="butt" d="M10.315 19.034c0-7.306 5.923-13.228 13.229-13.228h52.912a13.229 13.229 0 0 1 13.229 13.228v159.023c0 7.306-5.923 13.23-13.229 13.23H23.544c-7.306 0-13.229-5.924-13.229-13.23z"/><path fill="#900" d="M70.923 76.81c0-3.392 1.692-6.141 3.78-6.141 1.002 0 1.963.647 2.672 1.799.709 1.151 1.107 2.714 1.107 4.342 0 3.392-1.692 6.142-3.78 6.142-2.087 0-3.779-2.75-3.779-6.142zM25.268 78.09c0-3.392 1.693-6.142 3.78-6.142 1.002 0 1.964.647 2.672 1.8.71 1.151 1.107 2.713 1.107 4.342 0 3.392-1.692 6.142-3.779 6.142-2.087 0-3.78-2.75-3.78-6.142zM48.095 76.78c0-3.392 1.692-6.142 3.78-6.142 1.002 0 1.963.648 2.672 1.8.709 1.151 1.107 2.713 1.107 4.342 0 3.392-1.692 6.142-3.78 6.142-2.087 0-3.779-2.75-3.779-6.142zM25.268 40.155c0-3.392 1.692-6.142 3.78-6.142 1.002 0 1.963.647 2.672 1.799.709 1.152 1.107 2.714 1.107 4.343 0 3.392-1.692 6.142-3.78 6.142-2.087 0-3.78-2.75-3.78-6.142zM25.268 21.187c0-3.392 1.692-6.141 3.78-6.141 1.002 0 1.963.647 2.672 1.798.709 1.152 1.107 2.714 1.107 4.343 0 3.392-1.692 6.142-3.78 6.142-2.087 0-3.779-2.75-3.779-6.142zM25.268 59.122c0-3.392 1.692-6.141 3.78-6.141 1.002 0 1.963.647 2.672 1.799.71 1.151 1.107 2.714 1.107 4.342 0 3.392-1.692 6.142-3.78 6.142-2.087 0-3.779-2.75-3.779-6.142zM48.096 21.187c0-3.392 1.692-6.141 3.78-6.141 1.001 0 1.963.647 2.672 1.798.708 1.152 1.107 2.714 1.107 4.343 0 3.392-1.693 6.142-3.78 6.142-2.087 0-3.78-2.75-3.78-6.142zM48.096 48.982c0-3.392 1.692-6.142 3.78-6.142 1.002 0 1.963.647 2.672 1.799.709 1.151 1.107 2.714 1.107 4.343 0 3.392-1.692 6.141-3.78 6.141-2.087 0-3.78-2.75-3.78-6.141zM70.923 40.135c0-3.392 1.692-6.141 3.78-6.141 1.002 0 1.964.647 2.672 1.799.71 1.151 1.107 2.714 1.107 4.342 0 3.392-1.692 6.142-3.78 6.142-2.087 0-3.779-2.75-3.779-6.142zM70.924 21.187c0-3.392 1.692-6.141 3.78-6.141 1.001 0 1.963.647 2.672 1.798.708 1.152 1.107 2.714 1.107 4.343 0 3.392-1.693 6.142-3.78 6.142-2.087 0-3.78-2.75-3.78-6.142zM70.924 59.084c0-3.392 1.692-6.142 3.78-6.142 1.002 0 1.963.647 2.672 1.799.709 1.152 1.107 2.714 1.107 4.343 0 3.392-1.692 6.141-3.78 6.141-2.087 0-3.78-2.75-3.78-6.141zM69.053 171.649c0-3.392 1.692-6.142 3.78-6.142 1.002 0 1.964.647 2.672 1.799.71 1.151 1.107 2.714 1.107 4.343 0 3.392-1.692 6.141-3.78 6.141-2.087 0-3.779-2.75-3.779-6.141zM23.399 172.928c0-3.392 1.692-6.141 3.78-6.141 1.002 0 1.963.647 2.672 1.798.709 1.152 1.107 2.714 1.107 4.343 0 3.392-1.692 6.142-3.78 6.142-2.087 0-3.78-2.75-3.78-6.142zM46.225 171.618c0-3.392 1.692-6.141 3.78-6.141 1.002 0 1.964.647 2.672 1.798.71 1.152 1.107 2.714 1.107 4.343 0 3.392-1.692 6.142-3.78 6.142-2.087 0-3.779-2.75-3.779-6.142zM23.398 134.993c0-3.392 1.692-6.142 3.78-6.142 1.002 0 1.963.647 2.672 1.8.709 1.15 1.107 2.713 1.107 4.342 0 3.392-1.692 6.142-3.78 6.142-2.087 0-3.779-2.75-3.779-6.142zM23.398 116.025c0-3.392 1.692-6.141 3.78-6.141 1.002 0 1.964.647 2.672 1.799.71 1.151 1.107 2.713 1.107 4.342 0 3.392-1.692 6.142-3.78 6.142-2.087 0-3.779-2.75-3.779-6.142zM23.398 153.96c0-3.391 1.693-6.141 3.78-6.141 1.002 0 1.964.647 2.673 1.799.708 1.152 1.107 2.714 1.107 4.343 0 3.392-1.693 6.141-3.78 6.141-2.087 0-3.78-2.75-3.78-6.141zM46.226 116.025c0-3.392 1.692-6.141 3.78-6.141 1.002 0 1.963.647 2.672 1.799.709 1.151 1.107 2.713 1.107 4.342 0 3.392-1.692 6.142-3.78 6.142-2.087 0-3.78-2.75-3.78-6.142zM46.225 142.981c0-3.348 1.692-6.063 3.78-6.063 1.002 0 1.963.64 2.672 1.776.709 1.137 1.107 2.68 1.107 4.287 0 3.349-1.692 6.063-3.78 6.063-2.087 0-3.78-2.714-3.78-6.063zM69.053 134.974c0-3.392 1.693-6.142 3.78-6.142 1.002 0 1.964.647 2.673 1.799.708 1.151 1.107 2.714 1.107 4.343 0 3.392-1.693 6.141-3.78 6.141-2.087 0-3.78-2.75-3.78-6.141zM69.054 116.025c0-3.392 1.692-6.141 3.78-6.141 1.002 0 1.963.647 2.672 1.799.709 1.151 1.107 2.713 1.107 4.342 0 3.392-1.692 6.142-3.78 6.142-2.087 0-3.78-2.75-3.78-6.142zM69.054 153.922c0-3.392 1.692-6.142 3.78-6.142 1.002 0 1.963.647 2.672 1.799.709 1.152 1.107 2.714 1.107 4.343 0 3.392-1.692 6.141-3.78 6.141-2.087 0-3.78-2.75-3.78-6.141z" fill-rule="evenodd"/><path fill="none" d="M25.584 98.406h54.551"/><path stroke="#000" stroke-width="2" stroke-linejoin="round" stroke-linecap="butt" d="M25.584 98.406h54.551"/></g></svg>