<svg viewBox="0 0 100 179.186" fill="none" stroke-linecap="square" stroke-miterlimit="10" xmlns="http://www.w3.org/2000/svg"><clipPath id="a"><path d="M0 0h100v179.186H0V0z"/></clipPath><g clip-path="url(#a)"><path fill="#fff" d="M0 0h100v179.186H0z" fill-rule="evenodd"/><path fill="#000" d="M38.714 87.035c0-.52.421-.94.94-.94H67.76a.94.94 0 0 1 .94.94v3.758a.94.94 0 0 1-.94.94H39.654a.94.94 0 0 1-.94-.94z" fill-rule="evenodd"/><path stroke="#000" stroke-linejoin="round" stroke-linecap="butt" d="M38.714 87.035c0-.52.421-.94.94-.94H67.76a.94.94 0 0 1 .94.94v3.758a.94.94 0 0 1-.94.94H39.654a.94.94 0 0 1-.94-.94z"/><path fill="#fff" d="M10.283 19.777c0-7.312 5.928-13.239 13.24-13.239h52.954a13.24 13.24 0 0 1 13.24 13.24v139.631c0 7.312-5.928 13.24-13.24 13.24H23.523c-7.312 0-13.24-5.928-13.24-13.24z" fill-rule="evenodd"/><path stroke="#000" stroke-width="2" stroke-linejoin="round" stroke-linecap="butt" d="M10.283 19.777c0-7.312 5.928-13.239 13.24-13.239h52.954a13.24 13.24 0 0 1 13.24 13.24v139.631c0 7.312-5.928 13.24-13.24 13.24H23.523c-7.312 0-13.24-5.928-13.24-13.24z"/><path fill="#7f6000" d="M25.031 20.922c0-3.749 2.214-6.788 4.945-6.788 1.312 0 2.57.715 3.497 1.988.927 1.273 1.448 3 1.448 4.8 0 3.748-2.214 6.787-4.945 6.787-2.73 0-4.945-3.039-4.945-6.787z" fill-rule="evenodd"/><path fill="none" d="M25.347 88.785h54.551"/><path stroke="#000" stroke-width="2" stroke-linejoin="round" stroke-linecap="butt" d="M25.347 88.785h54.551"/><path fill="#7f6000" d="M70.704 71.873c0-3.748 2.214-6.787 4.945-6.787 1.312 0 2.57.715 3.497 1.988.927 1.273 1.448 3 1.448 4.8 0 3.748-2.214 6.787-4.945 6.787-2.73 0-4.945-3.039-4.945-6.788zM25.93 105.69c0-3.748 2.213-6.787 4.944-6.787 1.312 0 2.57.715 3.497 1.988.927 1.273 1.448 3 1.448 4.8 0 3.748-2.214 6.787-4.945 6.787-2.73 0-4.945-3.039-4.945-6.787zM70.703 156.317c0-3.749 2.214-6.788 4.945-6.788 1.312 0 2.57.715 3.497 1.988.927 1.273 1.448 3 1.448 4.8 0 3.748-2.214 6.787-4.945 6.787-2.73 0-4.945-3.039-4.945-6.787z" fill-rule="evenodd"/></g></svg>