<svg viewBox="0 0 100 181.079" fill="none" stroke-linecap="square" stroke-miterlimit="10" xmlns="http://www.w3.org/2000/svg"><clipPath id="a"><path d="M0 0h100v181.079H0V0z"/></clipPath><g clip-path="url(#a)"><path fill="#fff" d="M0 0h100v181.079H0z" fill-rule="evenodd"/><path fill="#000" d="M38.877 88.244c0-.521.423-.945.945-.945h27.685a.945.945 0 0 1 .945.945v3.78a.945.945 0 0 1-.945.945H39.822a.945.945 0 0 1-.945-.945z" fill-rule="evenodd"/><path stroke="#000" stroke-linejoin="round" stroke-linecap="butt" d="M38.877 88.244c0-.521.423-.945.945-.945h27.685a.945.945 0 0 1 .945.945v3.78a.945.945 0 0 1-.945.945H39.822a.945.945 0 0 1-.945-.945z"/><path fill="#fff" d="M10.819 20.407c0-7.213 5.847-13.06 13.06-13.06H76.12a13.06 13.06 0 0 1 13.061 13.06v140.808c0 7.213-5.847 13.06-13.06 13.06H23.88c-7.214 0-13.061-5.847-13.061-13.06z" fill-rule="evenodd"/><path stroke="#000" stroke-width="2" stroke-linejoin="round" stroke-linecap="butt" d="M10.819 20.407c0-7.213 5.847-13.06 13.06-13.06H76.12a13.06 13.06 0 0 1 13.061 13.06v140.808c0 7.213-5.847 13.06-13.06 13.06H23.88c-7.214 0-13.061-5.847-13.061-13.06z"/><path fill="#f0f" d="M25.373 21.8c0-3.767 2.186-6.82 4.882-6.82 1.295 0 2.537.719 3.452 1.998.916 1.278 1.43 3.013 1.43 4.821 0 3.766-2.186 6.82-4.882 6.82-2.696 0-4.882-3.054-4.882-6.82zM25.373 73.01c0-3.767 2.186-6.82 4.882-6.82 1.295 0 2.537.719 3.452 1.998.916 1.278 1.43 3.013 1.43 4.821 0 3.766-2.186 6.82-4.882 6.82-2.696 0-4.882-3.054-4.882-6.82zM49.208 21.8c0-3.767 2.186-6.82 4.882-6.82 1.295 0 2.536.719 3.452 1.998.915 1.278 1.43 3.013 1.43 4.821 0 3.766-2.186 6.82-4.882 6.82-2.696 0-4.882-3.054-4.882-6.82zM70.447 21.8c0-3.767 2.186-6.82 4.882-6.82 1.295 0 2.537.719 3.452 1.998.916 1.278 1.43 3.013 1.43 4.821 0 3.766-2.186 6.82-4.882 6.82-2.696 0-4.882-3.054-4.882-6.82z" fill-rule="evenodd"/><path fill="none" d="M25.685 90.003h53.858"/><path stroke="#000" stroke-width="2" stroke-linejoin="round" stroke-linecap="butt" d="M25.685 90.003h53.858"/><path fill="#f0f" d="M49.145 73c0-3.766 2.186-6.819 4.882-6.819 1.295 0 2.537.719 3.452 1.998.916 1.278 1.43 3.013 1.43 4.821 0 3.766-2.186 6.82-4.882 6.82-2.696 0-4.882-3.054-4.882-6.82zM70.447 73.005c0-3.766 2.186-6.82 4.882-6.82 1.295 0 2.537.72 3.452 1.998.916 1.279 1.43 3.013 1.43 4.822 0 3.766-2.186 6.819-4.882 6.819-2.696 0-4.882-3.053-4.882-6.82zM26.26 106.99c0-3.766 2.185-6.819 4.882-6.819 1.294 0 2.536.719 3.452 1.998.915 1.278 1.43 3.013 1.43 4.821 0 3.766-2.186 6.82-4.882 6.82-2.697 0-4.882-3.054-4.882-6.82zM26.26 158.2c0-3.766 2.185-6.819 4.882-6.819 1.294 0 2.536.719 3.452 1.998.915 1.278 1.43 3.013 1.43 4.821 0 3.766-2.186 6.82-4.882 6.82-2.697 0-4.882-3.054-4.882-6.82zM50.094 106.99c0-3.766 2.186-6.819 4.882-6.819 1.295 0 2.537.719 3.452 1.998.916 1.278 1.43 3.013 1.43 4.821 0 3.766-2.186 6.82-4.882 6.82-2.696 0-4.882-3.054-4.882-6.82zM71.334 106.99c0-3.766 2.186-6.819 4.882-6.819 1.295 0 2.536.719 3.452 1.998.915 1.278 1.43 3.013 1.43 4.821 0 3.766-2.186 6.82-4.882 6.82-2.696 0-4.882-3.054-4.882-6.82zM50.032 158.191c0-3.766 2.185-6.818 4.882-6.818 1.294 0 2.536.718 3.452 1.997.915 1.279 1.43 3.013 1.43 4.821 0 3.766-2.186 6.82-4.882 6.82-2.697 0-4.882-3.054-4.882-6.82zM71.334 158.196c0-3.766 2.185-6.819 4.882-6.819 1.294 0 2.536.718 3.452 1.997.915 1.279 1.43 3.013 1.43 4.822 0 3.766-2.186 6.819-4.882 6.819-2.697 0-4.882-3.053-4.882-6.82zM49.145 47.4c0-3.766 2.185-6.819 4.882-6.819 1.294 0 2.536.719 3.452 1.998.915 1.278 1.43 3.013 1.43 4.821 0 3.766-2.186 6.82-4.882 6.82-2.697 0-4.882-3.054-4.882-6.82zM50.094 132.592c0-3.766 2.186-6.82 4.882-6.82 1.295 0 2.537.719 3.452 1.998.916 1.279 1.43 3.013 1.43 4.822 0 3.765-2.186 6.818-4.882 6.818-2.696 0-4.882-3.053-4.882-6.818z" fill-rule="evenodd"/></g></svg>