<svg viewBox="0 0 100.173 178.588" fill="none" stroke-linecap="square" stroke-miterlimit="10" xmlns="http://www.w3.org/2000/svg"><clipPath id="a"><path d="M0 0h100.173v178.588H0V0z"/></clipPath><g clip-path="url(#a)"><path fill="#fff" d="M0 0h100.173v178.588H0z" fill-rule="evenodd"/><path fill="#000" d="M38.76 88.244c0-.521.423-.945.945-.945h28.22a.945.945 0 0 1 .946.945v3.78a.945.945 0 0 1-.945.945h-28.22a.945.945 0 0 1-.946-.945z" fill-rule="evenodd"/><path stroke="#000" stroke-linejoin="round" stroke-linecap="butt" d="M38.76 88.244c0-.521.423-.945.945-.945h28.22a.945.945 0 0 1 .946.945v3.78a.945.945 0 0 1-.945.945h-28.22a.945.945 0 0 1-.946-.945z"/><path fill="#fff" d="M10.197 20.643c0-7.343 5.953-13.297 13.297-13.297H76.68a13.297 13.297 0 0 1 13.296 13.297V160.98c0 7.343-5.953 13.297-13.296 13.297H23.494c-7.344 0-13.297-5.954-13.297-13.297z" fill-rule="evenodd"/><path stroke="#000" stroke-width="2" stroke-linejoin="round" stroke-linecap="butt" d="M10.197 20.643c0-7.343 5.953-13.297 13.297-13.297H76.68a13.297 13.297 0 0 1 13.296 13.297V160.98c0 7.343-5.953 13.297-13.296 13.297H23.494c-7.344 0-13.297-5.954-13.297-13.297z"/><path fill="#741b47" d="M25.013 47.404c0-3.766 2.221-6.819 4.96-6.819 1.316 0 2.578.719 3.508 1.998.93 1.278 1.453 3.013 1.453 4.821 0 3.766-2.22 6.82-4.96 6.82-2.74 0-4.961-3.054-4.961-6.82zM25.013 21.8c0-3.767 2.221-6.82 4.96-6.82 1.317 0 2.578.719 3.509 1.998.93 1.278 1.453 3.013 1.453 4.821 0 3.766-2.221 6.82-4.961 6.82s-4.96-3.054-4.96-6.82zM25.013 73.01c0-3.767 2.221-6.82 4.961-6.82 1.316 0 2.577.719 3.508 1.998.93 1.278 1.453 3.013 1.453 4.821 0 3.766-2.221 6.82-4.96 6.82-2.74 0-4.962-3.054-4.962-6.82zM49.277 21.8c0-3.767 2.221-6.82 4.961-6.82 1.316 0 2.577.719 3.508 1.998.93 1.278 1.453 3.013 1.453 4.821 0 3.766-2.221 6.82-4.96 6.82-2.74 0-4.962-3.054-4.962-6.82zM70.9 47.767c0-3.766 2.22-6.82 4.96-6.82 1.316 0 2.577.72 3.508 1.998.93 1.279 1.453 3.013 1.453 4.822 0 3.766-2.221 6.819-4.961 6.819s-4.96-3.053-4.96-6.82zM70.9 21.8c0-3.767 2.22-6.82 4.96-6.82 1.316 0 2.578.719 3.508 1.998.93 1.278 1.453 3.013 1.453 4.821 0 3.766-2.221 6.82-4.96 6.82-2.74 0-4.961-3.054-4.961-6.82z" fill-rule="evenodd"/><path fill="none" d="M25.33 90.003h54.835"/><path stroke="#000" stroke-width="2" stroke-linejoin="round" stroke-linecap="butt" d="M25.33 90.003h54.835"/><path fill="#741b47" d="M49.277 47.767c0-3.766 2.221-6.82 4.961-6.82 1.316 0 2.577.72 3.508 1.998.93 1.279 1.453 3.013 1.453 4.822 0 3.766-2.221 6.819-4.96 6.819-2.74 0-4.962-3.053-4.962-6.82zM49.214 73c0-3.766 2.22-6.819 4.96-6.819 1.316 0 2.578.719 3.508 1.998.93 1.278 1.453 3.013 1.453 4.821 0 3.766-2.221 6.82-4.96 6.82-2.74 0-4.961-3.054-4.961-6.82zM70.9 73.005c0-3.766 2.22-6.82 4.96-6.82 1.316 0 2.577.72 3.508 1.998.93 1.279 1.453 3.013 1.453 4.822 0 3.766-2.221 6.819-4.961 6.819s-4.96-3.053-4.96-6.82zM25.915 132.595c0-3.766 2.221-6.819 4.961-6.819 1.316 0 2.578.719 3.508 1.998.93 1.278 1.453 3.013 1.453 4.821 0 3.766-2.221 6.82-4.96 6.82-2.74 0-4.962-3.054-4.962-6.82zM25.916 106.99c0-3.766 2.22-6.819 4.96-6.819 1.316 0 2.578.719 3.508 1.998.93 1.278 1.453 3.013 1.453 4.821 0 3.766-2.22 6.82-4.96 6.82-2.74 0-4.961-3.054-4.961-6.82zM25.916 158.2c0-3.766 2.22-6.819 4.96-6.819 1.316 0 2.578.719 3.508 1.998.93 1.278 1.453 3.013 1.453 4.821 0 3.766-2.22 6.82-4.96 6.82-2.74 0-4.961-3.054-4.961-6.82zM50.18 106.99c0-3.766 2.22-6.819 4.96-6.819 1.316 0 2.578.719 3.508 1.998.93 1.278 1.453 3.013 1.453 4.821 0 3.766-2.22 6.82-4.96 6.82-2.74 0-4.961-3.054-4.961-6.82zM71.802 132.958c0-3.766 2.22-6.82 4.96-6.82 1.316 0 2.578.72 3.508 1.998.93 1.279 1.453 3.013 1.453 4.822 0 3.766-2.22 6.819-4.96 6.819-2.74 0-4.961-3.053-4.961-6.82zM71.802 106.99c0-3.766 2.221-6.819 4.96-6.819 1.316 0 2.578.719 3.508 1.998.93 1.278 1.453 3.013 1.453 4.821 0 3.766-2.22 6.82-4.96 6.82-2.74 0-4.96-3.054-4.96-6.82zM50.18 132.958c0-3.766 2.22-6.82 4.96-6.82 1.316 0 2.578.72 3.508 1.998.93 1.279 1.453 3.013 1.453 4.822 0 3.766-2.22 6.819-4.96 6.819-2.74 0-4.961-3.053-4.961-6.82zM50.116 158.191c0-3.766 2.221-6.818 4.96-6.818 1.316 0 2.578.718 3.508 1.997.93 1.279 1.453 3.013 1.453 4.821 0 3.766-2.22 6.82-4.96 6.82-2.74 0-4.96-3.054-4.96-6.82zM71.802 158.196c0-3.766 2.22-6.819 4.96-6.819 1.316 0 2.578.718 3.508 1.997.93 1.279 1.453 3.013 1.453 4.822 0 3.766-2.22 6.819-4.96 6.819-2.74 0-4.961-3.053-4.961-6.82z" fill-rule="evenodd"/></g></svg>