<svg version="1.1" viewBox="0.0 0.0 138.70866141732284 211.0" fill="none" stroke="none" stroke-linecap="square" stroke-miterlimit="10" xmlns:xlink="http://www.w3.org/1999/xlink" xmlns="http://www.w3.org/2000/svg"><clipPath id="p.0"><path d="m0 0l138.70866 0l0 211.0l-138.70866 0l0 -211.0z" clip-rule="nonzero"/></clipPath><g clip-path="url(#p.0)"><path fill="#000000" fill-opacity="0.0" d="m0 0l138.70866 0l0 211.0l-138.70866 0z" fill-rule="evenodd"/><path fill="#000000" d="m54.020176 93.0985l0 0c0 -0.5508499 0.44655228 -0.9973984 0.9973984 -0.9973984l32.997334 0c0.26452637 0 0.518219 0.10508728 0.70526886 0.29212952c0.18704224 0.18704987 0.29212952 0.4407425 0.29212952 0.70526886l0 3.9894638c0 0.5508423 -0.44654846 0.99739075 -0.9973984 0.99739075l-32.997334 0c-0.5508461 0 -0.9973984 -0.44654846 -0.9973984 -0.99739075z" fill-rule="evenodd"/><path stroke="#000000" stroke-width="1.0" stroke-linejoin="round" stroke-linecap="butt" d="m54.020176 93.0985l0 0c0 -0.5508499 0.44655228 -0.9973984 0.9973984 -0.9973984l32.997334 0c0.26452637 0 0.518219 0.10508728 0.70526886 0.29212952c0.18704224 0.18704987 0.29212952 0.4407425 0.29212952 0.70526886l0 3.9894638c0 0.5508423 -0.44654846 0.99739075 -0.9973984 0.99739075l-32.997334 0c-0.5508461 0 -0.9973984 -0.44654846 -0.9973984 -0.99739075z" fill-rule="evenodd"/><path fill="#ffffff" d="m20.832022 23.199774l0 0c0 -8.532318 6.916809 -15.449127 15.449125 -15.449127l61.79466 0l0 0c4.0973663 0 8.026909 1.6276708 10.924187 4.524945c2.8972702 2.897273 4.5249405 6.8268204 4.5249405 10.924183l0 145.22774c0 8.532318 -6.916809 15.449127 -15.449127 15.449127l-61.79466 0c-8.532316 0 -15.449125 -6.916809 -15.449125 -15.449127z" fill-rule="evenodd"/><path stroke="#000000" stroke-width="2.0" stroke-linejoin="round" stroke-linecap="butt" d="m20.832022 23.199774l0 0c0 -8.532318 6.916809 -15.449127 15.449125 -15.449127l61.79466 0l0 0c4.0973663 0 8.026909 1.6276708 10.924187 4.524945c2.8972702 2.897273 4.5249405 6.8268204 4.5249405 10.924183l0 145.22774c0 8.532318 -6.916809 15.449127 -15.449127 15.449127l-61.79466 0c-8.532316 0 -15.449125 -6.916809 -15.449125 -15.449127z" fill-rule="evenodd"/><path fill="#000000" d="m63.590794 137.80467l0 0c0 -3.974701 2.580532 -7.1968384 5.7637825 -7.1968384l0 0c1.5286484 0 2.9946823 0.7582245 4.0756073 2.1079102c1.0809174 1.3496704 1.6881714 3.1802063 1.6881714 5.088928l0 0c0 3.9747162 -2.580536 7.1968536 -5.7637787 7.1968536l0 0c-3.1832504 0 -5.7637825 -3.2221375 -5.7637825 -7.1968536z" fill-rule="evenodd"/><path fill="#000000" d="m63.591335 48.229614l0 0c0 -3.9747086 2.580532 -7.19685 5.7637825 -7.19685l0 0c1.5286484 0 2.99469 0.75823975 4.0756073 2.1079102c1.0809174 1.3496704 1.6881714 3.1802177 1.6881714 5.0889397l0 0c0 3.9747124 -2.580536 7.1968536 -5.7637787 7.1968536l0 0c-3.1832504 0 -5.7637825 -3.2221413 -5.7637825 -7.1968536z" fill-rule="evenodd"/><path fill="#000000" fill-opacity="0.0" d="m38.416004 94.95288l63.68504 0" fill-rule="evenodd"/><path stroke="#000000" stroke-width="2.0" stroke-linejoin="round" stroke-linecap="butt" d="m38.416004 94.95288l63.68504 0" fill-rule="evenodd"/></g></svg>