<?xml version="1.0" encoding="UTF-8" standalone="no"?>
<svg
   version="1.1"
   viewBox="4.2 1.4 13.962554 15.754237"
   fill="none"
   stroke="none"
   stroke-linecap="square"
   stroke-miterlimit="10"
   id="svg863"
   width="13.372881"
   height="15.754237"
   xmlns="http://www.w3.org/2000/svg"
   xmlns:svg="http://www.w3.org/2000/svg">
  <defs
     id="defs867" />
  <clipPath
     id="p.0">
    <path
       d="M 0,0 H 100 V 100 H 0 Z"
       clip-rule="nonzero"
       id="path798" />
  </clipPath>
  <path
     fill="#000000"
     fill-opacity="0"
     d="M 4.2,0.96521866 H 18.162555 V 17.414134 H 4.2 Z"
     fill-rule="evenodd"
     id="path801"
     style="stroke-width:1.74867" />
  <path
     fill="#000000"
     d="m 9.1340498,8.9033462 v 0 c 0,-0.043395 0.02986,-0.078578 0.0667,-0.078578 h 4.2026892 c 0.01769,0 0.03465,0.00828 0.04716,0.023016 0.01251,0.014739 0.01954,0.034727 0.01954,0.055554 v 0.3142964 c 0,0.043395 -0.02986,0.078578 -0.0667,0.078578 H 9.2007498 v 0 c -0.03683,0 -0.0667,-0.035183 -0.0667,-0.078578 z"
     fill-rule="evenodd"
     id="path803"
     style="stroke-width:1.74867" />
  <path
     stroke="#000000"
     stroke-width="0.670947"
     stroke-linejoin="round"
     stroke-linecap="butt"
     d="m 9.1340498,8.9033462 v 0 c 0,-0.043395 0.02986,-0.078578 0.0667,-0.078578 h 4.2026892 c 0.01769,0 0.03465,0.00828 0.04716,0.023016 0.01251,0.014739 0.01954,0.034727 0.01954,0.055554 v 0.3142964 c 0,0.043395 -0.02986,0.078578 -0.0667,0.078578 H 9.2007498 v 0 c -0.03683,0 -0.0667,-0.035183 -0.0667,-0.078578 z"
     fill-rule="evenodd"
     id="path805" />
  <path
     fill="#ffffff"
     d="m 8.3547208,4.4243842 v 0 c 0,-0.6385501 0.439401,-1.1561965 0.98143,-1.1561965 h 3.9256002 v 0 c 0.260292,0 0.509923,0.1218128 0.693976,0.3386415 0.184054,0.2168296 0.287455,0.5109127 0.287455,0.817555 v 9.5308268 c 0,0.638549 -0.439402,1.156196 -0.981431,1.156196 H 9.3361508 c -0.542029,0 -0.98143,-0.517647 -0.98143,-1.156196 z"
     fill-rule="evenodd"
     id="path807"
     style="stroke-width:1.74867" />
  <path
     style="color:#000000;fill:#000000;fill-rule:evenodd;stroke:#000000;stroke-width:0.21016;stroke-linejoin:round;stroke-miterlimit:10;stroke-dasharray:none;stroke-opacity:1"
     d="m 9.3361478,3.1858221 c -0.579758,0 -1.051283,0.5554902 -1.051283,1.2384878 v 9.5310541 c 0,0.682996 0.471525,1.238167 1.051283,1.238167 h 3.9256042 c 0.579758,0 1.051282,-0.555171 1.051282,-1.238167 V 4.4243099 c 0,-0.3284231 -0.110757,-0.6435463 -0.307884,-0.8757767 C 13.808023,3.3163036 13.540533,3.1858221 13.261752,3.1858221 Z m 0,0.1644891 h 3.9256042 c 0.241803,0 0.473699,0.1130946 0.644678,0.3145217 0.17098,0.2014271 0.266979,0.4746162 0.266979,0.759477 v 9.5310541 c 0,0.5941 -0.407357,1.073677 -0.911657,1.073677 H 9.3361478 c -0.504299,0 -0.911657,-0.479577 -0.911657,-1.073677 V 4.4243099 c 0,-0.5941011 0.407358,-1.0739987 0.911657,-1.0739987 z"
     id="path809" />
  <path
     fill="#000000"
     d="m 9.3331628,9.0851983 v 0 c 0,-0.023367 0.01608,-0.042309 0.03591,-0.042309 h 3.7057562 c 0.0095,0 0.01866,0.00447 0.02539,0.012391 0.0068,0.00791 0.01052,0.018694 0.01052,0.029918 v 0.1692369 c 0,0.023367 -0.01608,0.042309 -0.03591,0.042309 H 9.3690728 c -0.01984,0 -0.03591,-0.018942 -0.03591,-0.042309 z"
     fill-rule="evenodd"
     id="path811"
     style="fill:#000000;fill-opacity:0.981785;stroke:none;stroke-width:0.21016;stroke-miterlimit:10;stroke-dasharray:none;stroke-opacity:1" />
  <path
     fill="#c9daf8"
     d="m 9.3330978,4.2400516 v 0 c 0,-0.1945655 0.150621,-0.3522913 0.336421,-0.3522913 v 0 c 0.1858,0 0.3364212,0.1577258 0.3364212,0.3522913 v 0 c 0,0.1945655 -0.1506212,0.3522921 -0.3364212,0.3522921 v 0 c -0.1858,0 -0.336421,-0.1577266 -0.336421,-0.3522921 z"
     fill-rule="evenodd"
     id="path813"
     style="stroke-width:1.74867" />
  <path
     fill="#c9daf8"
     d="m 9.3330978,5.4355196 v 0 c 0,-0.1945655 0.150621,-0.3522913 0.336421,-0.3522913 v 0 c 0.1858,0 0.3364212,0.1577258 0.3364212,0.3522913 v 0 c 0,0.1945655 -0.1506212,0.3522921 -0.3364212,0.3522921 v 0 c -0.1858,0 -0.336421,-0.1577266 -0.336421,-0.3522921 z"
     fill-rule="evenodd"
     id="path815"
     style="stroke-width:1.74867" />
  <path
     fill="#c9daf8"
     d="m 9.3330978,6.6309876 v 0 c 0,-0.1945655 0.150621,-0.3522913 0.336421,-0.3522913 v 0 c 0.1858,0 0.3364212,0.1577258 0.3364212,0.3522913 v 0 c 0,0.1945655 -0.1506212,0.3522913 -0.3364212,0.3522913 v 0 c -0.1858,0 -0.336421,-0.1577258 -0.336421,-0.3522913 z"
     fill-rule="evenodd"
     id="path817"
     style="stroke-width:1.74867" />
  <path
     fill="#c9daf8"
     d="m 9.3330978,7.8264564 v 0 c 0,-0.1945655 0.150621,-0.3522913 0.336421,-0.3522913 v 0 c 0.1858,0 0.3364212,0.1577258 0.3364212,0.3522913 v 0 c 0,0.1945655 -0.1506212,0.3522913 -0.3364212,0.3522913 v 0 c -0.1858,0 -0.336421,-0.1577258 -0.336421,-0.3522913 z"
     fill-rule="evenodd"
     id="path819"
     style="stroke-width:1.74867" />
  <path
     fill="#c9daf8"
     d="m 10.885336,4.2400516 v 0 c 0,-0.1945655 0.15062,-0.3522913 0.336421,-0.3522913 v 0 c 0.1858,0 0.33642,0.1577258 0.33642,0.3522913 v 0 c 0,0.1945655 -0.15062,0.3522921 -0.33642,0.3522921 v 0 c -0.185801,0 -0.336421,-0.1577266 -0.336421,-0.3522921 z"
     fill-rule="evenodd"
     id="path821"
     style="stroke-width:1.74867" />
  <path
     fill="#c9daf8"
     d="m 10.885336,5.4355196 v 0 c 0,-0.1945655 0.15062,-0.3522913 0.336421,-0.3522913 v 0 c 0.1858,0 0.33642,0.1577258 0.33642,0.3522913 v 0 c 0,0.1945655 -0.15062,0.3522921 -0.33642,0.3522921 v 0 c -0.185801,0 -0.336421,-0.1577266 -0.336421,-0.3522921 z"
     fill-rule="evenodd"
     id="path823"
     style="stroke-width:1.74867" />
  <path
     fill="#c9daf8"
     d="m 10.885336,6.6309876 v 0 c 0,-0.1945655 0.15062,-0.3522913 0.336421,-0.3522913 v 0 c 0.1858,0 0.33642,0.1577258 0.33642,0.3522913 v 0 c 0,0.1945655 -0.15062,0.3522913 -0.33642,0.3522913 v 0 c -0.185801,0 -0.336421,-0.1577258 -0.336421,-0.3522913 z"
     fill-rule="evenodd"
     id="path825"
     style="stroke-width:1.74867" />
  <path
     fill="#c9daf8"
     d="m 10.885336,7.8264564 v 0 c 0,-0.1945655 0.15062,-0.3522913 0.336421,-0.3522913 v 0 c 0.1858,0 0.33642,0.1577258 0.33642,0.3522913 v 0 c 0,0.1945655 -0.15062,0.3522913 -0.33642,0.3522913 v 0 c -0.185801,0 -0.336421,-0.1577258 -0.336421,-0.3522913 z"
     fill-rule="evenodd"
     id="path827"
     style="stroke-width:1.74867" />
  <path
     fill="#c9daf8"
     d="m 12.437574,4.2400516 v 0 c 0,-0.1945655 0.15062,-0.3522913 0.33642,-0.3522913 v 0 c 0.185801,0 0.336421,0.1577258 0.336421,0.3522913 v 0 c 0,0.1945655 -0.15062,0.3522921 -0.336421,0.3522921 v 0 c -0.1858,0 -0.33642,-0.1577266 -0.33642,-0.3522921 z"
     fill-rule="evenodd"
     id="path829"
     style="stroke-width:1.74867" />
  <path
     fill="#c9daf8"
     d="m 12.437574,5.4355196 v 0 c 0,-0.1945655 0.15062,-0.3522913 0.33642,-0.3522913 v 0 c 0.185801,0 0.336421,0.1577258 0.336421,0.3522913 v 0 c 0,0.1945655 -0.15062,0.3522921 -0.336421,0.3522921 v 0 c -0.1858,0 -0.33642,-0.1577266 -0.33642,-0.3522921 z"
     fill-rule="evenodd"
     id="path831"
     style="stroke-width:1.74867" />
  <path
     fill="#c9daf8"
     d="m 12.437574,6.6309876 v 0 c 0,-0.1945655 0.15062,-0.3522913 0.33642,-0.3522913 v 0 c 0.185801,0 0.336421,0.1577258 0.336421,0.3522913 v 0 c 0,0.1945655 -0.15062,0.3522913 -0.336421,0.3522913 v 0 c -0.1858,0 -0.33642,-0.1577258 -0.33642,-0.3522913 z"
     fill-rule="evenodd"
     id="path833"
     style="stroke-width:1.74867" />
  <path
     fill="#c9daf8"
     d="m 12.437574,7.8264564 v 0 c 0,-0.1945655 0.15062,-0.3522913 0.33642,-0.3522913 v 0 c 0.185801,0 0.336421,0.1577258 0.336421,0.3522913 v 0 c 0,0.1945655 -0.15062,0.3522913 -0.336421,0.3522913 v 0 c -0.1858,0 -0.33642,-0.1577258 -0.33642,-0.3522913 z"
     fill-rule="evenodd"
     id="path835"
     style="stroke-width:1.74867" />
  <path
     fill="#c9daf8"
     d="m 9.3330978,10.297813 v 0 c 0,-0.194566 0.150621,-0.3522916 0.336421,-0.3522916 v 0 c 0.1858,0 0.3364212,0.1577256 0.3364212,0.3522916 v 0 c 0,0.194565 -0.1506212,0.352292 -0.3364212,0.352292 v 0 c -0.1858,0 -0.336421,-0.157727 -0.336421,-0.352292 z"
     fill-rule="evenodd"
     id="path837"
     style="stroke-width:1.74867" />
  <path
     fill="#c9daf8"
     d="m 9.3330978,11.493281 v 0 c 0,-0.194566 0.150621,-0.352292 0.336421,-0.352292 v 0 c 0.1858,0 0.3364212,0.157726 0.3364212,0.352292 v 0 c 0,0.194565 -0.1506212,0.352292 -0.3364212,0.352292 v 0 c -0.1858,0 -0.336421,-0.157727 -0.336421,-0.352292 z"
     fill-rule="evenodd"
     id="path839"
     style="stroke-width:1.74867" />
  <path
     fill="#c9daf8"
     d="m 9.3330978,12.688749 v 0 c 0,-0.194565 0.150621,-0.352292 0.336421,-0.352292 v 0 c 0.1858,0 0.3364212,0.157727 0.3364212,0.352292 v 0 c 0,0.194565 -0.1506212,0.352291 -0.3364212,0.352291 v 0 c -0.1858,0 -0.336421,-0.157726 -0.336421,-0.352291 z"
     fill-rule="evenodd"
     id="path841"
     style="stroke-width:1.74867" />
  <path
     fill="#c9daf8"
     d="m 9.3330978,13.884216 v 0 c 0,-0.194565 0.150621,-0.352291 0.336421,-0.352291 v 0 c 0.1858,0 0.3364212,0.157726 0.3364212,0.352291 v 0 c 0,0.194566 -0.1506212,0.352292 -0.3364212,0.352292 v 0 c -0.1858,0 -0.336421,-0.157726 -0.336421,-0.352292 z"
     fill-rule="evenodd"
     id="path843"
     style="stroke-width:1.74867" />
  <path
     fill="#c9daf8"
     d="m 10.885336,10.297813 v 0 c 0,-0.194566 0.15062,-0.3522916 0.336421,-0.3522916 v 0 c 0.1858,0 0.33642,0.1577256 0.33642,0.3522916 v 0 c 0,0.194565 -0.15062,0.352292 -0.33642,0.352292 v 0 c -0.185801,0 -0.336421,-0.157727 -0.336421,-0.352292 z"
     fill-rule="evenodd"
     id="path845"
     style="stroke-width:1.74867" />
  <path
     fill="#c9daf8"
     d="m 10.885336,11.493281 v 0 c 0,-0.194566 0.15062,-0.352292 0.336421,-0.352292 v 0 c 0.1858,0 0.33642,0.157726 0.33642,0.352292 v 0 c 0,0.194565 -0.15062,0.352292 -0.33642,0.352292 v 0 c -0.185801,0 -0.336421,-0.157727 -0.336421,-0.352292 z"
     fill-rule="evenodd"
     id="path847"
     style="stroke-width:1.74867" />
  <path
     fill="#c9daf8"
     d="m 10.885336,12.688749 v 0 c 0,-0.194565 0.15062,-0.352292 0.336421,-0.352292 v 0 c 0.1858,0 0.33642,0.157727 0.33642,0.352292 v 0 c 0,0.194565 -0.15062,0.352291 -0.33642,0.352291 v 0 c -0.185801,0 -0.336421,-0.157726 -0.336421,-0.352291 z"
     fill-rule="evenodd"
     id="path849"
     style="stroke-width:1.74867" />
  <path
     fill="#c9daf8"
     d="m 10.885336,13.884216 v 0 c 0,-0.194565 0.15062,-0.352291 0.336421,-0.352291 v 0 c 0.1858,0 0.33642,0.157726 0.33642,0.352291 v 0 c 0,0.194566 -0.15062,0.352292 -0.33642,0.352292 v 0 c -0.185801,0 -0.336421,-0.157726 -0.336421,-0.352292 z"
     fill-rule="evenodd"
     id="path851"
     style="stroke-width:1.74867" />
  <path
     fill="#c9daf8"
     d="m 12.437574,10.297813 v 0 c 0,-0.194566 0.15062,-0.3522916 0.33642,-0.3522916 v 0 c 0.185801,0 0.336421,0.1577256 0.336421,0.3522916 v 0 c 0,0.194565 -0.15062,0.352292 -0.336421,0.352292 v 0 c -0.1858,0 -0.33642,-0.157727 -0.33642,-0.352292 z"
     fill-rule="evenodd"
     id="path853"
     style="stroke-width:1.74867" />
  <path
     fill="#c9daf8"
     d="m 12.437574,11.493281 v 0 c 0,-0.194566 0.15062,-0.352292 0.33642,-0.352292 v 0 c 0.185801,0 0.336421,0.157726 0.336421,0.352292 v 0 c 0,0.194565 -0.15062,0.352292 -0.336421,0.352292 v 0 c -0.1858,0 -0.33642,-0.157727 -0.33642,-0.352292 z"
     fill-rule="evenodd"
     id="path855"
     style="stroke-width:1.74867" />
  <path
     fill="#c9daf8"
     d="m 12.437574,12.688749 v 0 c 0,-0.194565 0.15062,-0.352292 0.33642,-0.352292 v 0 c 0.185801,0 0.336421,0.157727 0.336421,0.352292 v 0 c 0,0.194565 -0.15062,0.352291 -0.336421,0.352291 v 0 c -0.1858,0 -0.33642,-0.157726 -0.33642,-0.352291 z"
     fill-rule="evenodd"
     id="path857"
     style="stroke-width:1.74867" />
  <path
     fill="#c9daf8"
     d="m 12.437574,13.884216 v 0 c 0,-0.194565 0.15062,-0.352291 0.33642,-0.352291 v 0 c 0.185801,0 0.336421,0.157726 0.336421,0.352291 v 0 c 0,0.194566 -0.15062,0.352292 -0.336421,0.352292 v 0 c -0.1858,0 -0.33642,-0.157726 -0.33642,-0.352292 z"
     fill-rule="evenodd"
     id="path859"
     style="stroke-width:1.74867" />
</svg>
